<svg width="20" height="20" viewBox="0 0 20 20" fill="none" xmlns="http://www.w3.org/2000/svg">
    <path d="M13.2788 6.81265L7.38502 10.4964C7.48837 10.8254 7.52242 11.1723 7.48502 11.5152L12.9525 13.5652C13.3018 13.0669 13.8208 12.7131 14.4123 12.5701C15.0037 12.4271 15.627 12.5048 16.1654 12.7885C16.7037 13.0722 17.12 13.5425 17.3364 14.1113C17.5527 14.68 17.5542 15.3082 17.3405 15.8779C17.1269 16.4477 16.7127 16.9199 16.1758 17.2062C15.6388 17.4925 15.0159 17.573 14.4237 17.4329C13.8316 17.2927 13.3109 16.9413 12.9593 16.4447C12.6077 15.9481 12.4493 15.3402 12.5138 14.7352L7.04752 12.6852C6.7546 13.103 6.34085 13.4211 5.86182 13.5969C5.3828 13.7727 4.86146 13.7978 4.36781 13.6686C3.87416 13.5395 3.43184 13.2624 3.10026 12.8745C2.76869 12.4867 2.56373 12.0067 2.51292 11.4989C2.4621 10.9912 2.56787 10.4801 2.81601 10.0342C3.06416 9.58838 3.44279 9.22913 3.90106 9.00473C4.35933 8.78033 4.87529 8.70153 5.37965 8.77892C5.88401 8.85631 6.35261 9.08618 6.72252 9.43765L12.615 5.7539C12.4318 5.17367 12.4664 4.54652 12.7125 3.99001C12.9585 3.4335 13.3991 2.98583 13.9516 2.73092C14.5042 2.47602 15.1307 2.43137 15.7138 2.60535C16.2968 2.77933 16.7964 3.15999 17.1189 3.67598C17.4414 4.19197 17.5647 4.80787 17.4656 5.40823C17.3664 6.00858 17.0518 6.55218 16.5805 6.93712C16.1093 7.32206 15.5138 7.52192 14.9058 7.49924C14.2977 7.47656 13.7188 7.23289 13.2775 6.8139L13.2788 6.81265Z" fill="white"/>
</svg>
